{
  "accessors": [
    {
      "bufferView": 2,
      "componentType": 5126,
      "count": 65532,
      "max": [
        0.25578200817108154,
        0.001753999968059361,
        0.7329019904136658
      ],
      "min": [
        -0.26572901010513306,
        -0.4834649860858917,
        0.37595000863075256
      ],
      "type": "VEC3"
    },
    {
      "bufferView": 2,
      "byteOffset": 786384,
      "componentType": 5126,
      "count": 65532,
      "max": [
        0.9991258978843689,
        1.0,
        0.9999930262565613
      ],
      "min": [
        -0.9991263747215271,
        -1.0,
        -0.9999930262565613
      ],
      "type": "VEC3"
    },
    {
      "bufferView": 3,
      "componentType": 5126,
      "count": 65532,
      "max": [
        0.9999443292617798,
        0.9999544024467468,
        0.999504804611206,
        1.0
      ],
      "min": [
        -0.9999093413352966,
        -0.999964714050293,
        -0.9999849796295166,
        -1.0
      ],
      "type": "VEC4"
    },
    {
      "bufferView": 1,
      "componentType": 5126,
      "count": 65532,
      "max": [
        0.9976300001144409,
        1.0
      ],
      "min": [
        0.0,
        -0.0
      ],
      "type": "VEC2"
    },
    {
      "bufferView": 0,
      "componentType": 5125,
      "count": 213714,
      "type": "SCALAR"
    },
    {
      "bufferView": 2,
      "byteOffset": 1572768,
      "componentType": 5126,
      "count": 65532,
      "max": [
        0.2428400069475174,
        -0.002500999951735139,
        0.715054988861084
      ],
      "min": [
        -0.2523980140686035,
        -0.478753000497818,
        0.38706499338150024
      ],
      "type": "VEC3"
    },
    {
      "bufferView": 2,
      "byteOffset": 2359152,
      "componentType": 5126,
      "count": 65532,
      "max": [
        0.9889347553253174,
        1.0,
        0.9996089935302734
      ],
      "min": [
        -0.9921167492866516,
        -1.0,
        -0.9999791383743286
      ],
      "type": "VEC3"
    },
    {
      "bufferView": 3,
      "byteOffset": 1048512,
      "componentType": 5126,
      "count": 65532,
      "max": [
        0.9999862909317017,
        0.9999152421951294,
        0.9999098181724548,
        1.0
      ],
      "min": [
        -0.9999733567237854,
        -0.9902273416519165,
        -0.9999961256980896,
        1.0
      ],
      "type": "VEC4"
    },
    {
      "bufferView": 1,
      "byteOffset": 524256,
      "componentType": 5126,
      "count": 65532,
      "max": [
        0.99760901927948,
        0.9999420046806335
      ],
      "min": [
        0.0,
        -0.0
      ],
      "type": "VEC2"
    },
    {
      "bufferView": 0,
      "byteOffset": 854856,
      "componentType": 5125,
      "count": 206745,
      "type": "SCALAR"
    },
    {
      "bufferView": 2,
      "byteOffset": 3145536,
      "componentType": 5126,
      "count": 57331,
      "max": [
        0.22502900660037994,
        -0.0044280001893639565,
        0.627722978591919
      ],
      "min": [
        -0.15064699947834015,
        -0.4780380129814148,
        0.41355499625205994
      ],
      "type": "VEC3"
    },
    {
      "bufferView": 2,
      "byteOffset": 3833508,
      "componentType": 5126,
      "count": 57331,
      "max": [
        0.9989528656005859,
        1.0,
        0.999656617641449
      ],
      "min": [
        -0.9986112117767334,
        -1.0,
        -0.999995231628418
      ],
      "type": "VEC3"
    },
    {
      "bufferView": 3,
      "byteOffset": 2097024,
      "componentType": 5126,
      "count": 57331,
      "max": [
        0.9999983906745911,
        0.9999158978462219,
        0.9995342493057251,
        1.0
      ],
      "min": [
        -0.9999961853027344,
        -0.9990050792694092,
        -0.9999998807907104,
        1.0
      ],
      "type": "VEC4"
    },
    {
      "bufferView": 1,
      "byteOffset": 1048512,
      "componentType": 5126,
      "count": 57331,
      "max": [
        0.9976419806480408,
        0.9999629855155945
      ],
      "min": [
        -0.0,
        -0.0
      ],
      "type": "VEC2"
    },
    {
      "bufferView": 0,
      "byteOffset": 1681836,
      "componentType": 5125,
      "count": 175365,
      "type": "SCALAR"
    },
    {
      "bufferView": 2,
      "byteOffset": 4521480,
      "componentType": 5126,
      "count": 65532,
      "max": [
        0.2699759900569916,
        0.23353299498558044,
        0.42417800426483154
      ],
      "min": [
        -0.41450798511505127,
        -0.2354550063610077,
        -0.3621020019054413
      ],
      "type": "VEC3"
    },
    {
      "bufferView": 2,
      "byteOffset": 5307864,
      "componentType": 5126,
      "count": 65532,
      "max": [
        0.9999690055847168,
        0.9992582201957703,
        0.9993096590042114
      ],
      "min": [
        -0.9999886155128479,
        -0.9991950988769531,
        -0.9992777705192566
      ],
      "type": "VEC3"
    },
    {
      "bufferView": 3,
      "byteOffset": 3014320,
      "componentType": 5126,
      "count": 65532,
      "max": [
        0.9999959468841553,
        1.0,
        0.9973549246788025,
        1.0
      ],
      "min": [
        -1.0,
        -0.9999979734420776,
        -0.9996785521507263,
        -1.0
      ],
      "type": "VEC4"
    },
    {
      "bufferView": 1,
      "byteOffset": 1507160,
      "componentType": 5126,
      "count": 65532,
      "max": [
        1.0,
        0.9907580018043518
      ],
      "min": [
        0.0,
        0.0
      ],
      "type": "VEC2"
    },
    {
      "bufferView": 0,
      "byteOffset": 2383296,
      "componentType": 5125,
      "count": 98298,
      "type": "SCALAR"
    },
    {
      "bufferView": 2,
      "byteOffset": 6094248,
      "componentType": 5126,
      "count": 33284,
      "max": [
        0.2699759900569916,
        0.23316800594329834,
        0.42417800426483154
      ],
      "min": [
        -0.3248710036277771,
        -0.23546400666236877,
        -0.3621020019054413
      ],
      "type": "VEC3"
    },
    {
      "bufferView": 2,
      "byteOffset": 6493656,
      "componentType": 5126,
      "count": 33284,
      "max": [
        0.9999691247940063,
        0.9991939067840576,
        0.9993117451667786
      ],
      "min": [
        -0.9999886155128479,
        -0.9992577433586121,
        -0.999276340007782
      ],
      "type": "VEC3"
    },
    {
      "bufferView": 3,
      "byteOffset": 4062832,
      "componentType": 5126,
      "count": 33284,
      "max": [
        0.9999973177909851,
        1.0,
        0.9851652979850769,
        1.0
      ],
      "min": [
        -1.0,
        -0.9999590516090393,
        -0.9995421767234802,
        -1.0
      ],
      "type": "VEC4"
    },
    {
      "bufferView": 1,
      "byteOffset": 2031416,
      "componentType": 5126,
      "count": 33284,
      "max": [
        1.0,
        0.9907580018043518
      ],
      "min": [
        0.0,
        0.0
      ],
      "type": "VEC2"
    },
    {
      "bufferView": 0,
      "byteOffset": 2776488,
      "componentType": 5125,
      "count": 49926,
      "type": "SCALAR"
    }
  ],
  "asset": {
    "extras": {
      "author": "Pablo Espinosa (https://sketchfab.com/pabloespinosa)",
      "license": "CC-BY-4.0 (http://creativecommons.org/licenses/by/4.0/)",
      "source": "https://sketchfab.com/3d-models/mr-10-chair-e19dda10060749d5a93ee6dde5a66cba",
      "title": "MR 10 chair"
    },
    "generator": "Sketchfab-15.46.0",
    "version": "2.0"
  },
  "bufferViews": [
    {
      "buffer": 0,
      "byteLength": 2976192,
      "name": "floatBufferViews",
      "target": 34963
    },
    {
      "buffer": 0,
      "byteLength": 2297688,
      "byteOffset": 2976192,
      "byteStride": 8,
      "name": "floatBufferViews",
      "target": 34962
    },
    {
      "buffer": 0,
      "byteLength": 6893064,
      "byteOffset": 5273880,
      "byteStride": 12,
      "name": "floatBufferViews",
      "target": 34962
    },
    {
      "buffer": 0,
      "byteLength": 4595376,
      "byteOffset": 12166944,
      "byteStride": 16,
      "name": "floatBufferViews",
      "target": 34962
    }
  ],
  "buffers": [
    {
      "byteLength": 16762320,
      "uri": "scene.bin"
    }
  ],
  "extensionsUsed": [
    "KHR_materials_specular"
  ],
  "images": [
    {
      "uri": "textures/metal_baseColor.jpeg"
    },
    {
      "uri": "textures/metal_metallicRoughness.png"
    },
    {
      "uri": "textures/metal_normal.png"
    },
    {
      "uri": "textures/wicker_baseColor.jpeg"
    },
    {
      "uri": "textures/wicker_metallicRoughness.png"
    },
    {
      "uri": "textures/wicker_normal.png"
    }
  ],
  "materials": [
    {
      "doubleSided": true,
      "extensions": {
        "KHR_materials_specular": {
          "specularColorFactor": [
            1.0,
            1.0,
            1.0
          ],
          "specularFactor": 0.5048755377734246
        }
      },
      "name": "metal",
      "normalTexture": {
        "index": 2
      },
      "occlusionTexture": {
        "index": 1
      },
      "pbrMetallicRoughness": {
        "baseColorTexture": {
          "index": 0
        },
        "metallicRoughnessTexture": {
          "index": 1
        }
      }
    },
    {
      "doubleSided": true,
      "name": "wicker",
      "normalTexture": {
        "index": 5
      },
      "occlusionTexture": {
        "index": 4
      },
      "pbrMetallicRoughness": {
        "baseColorTexture": {
          "index": 3
        },
        "metallicRoughnessTexture": {
          "index": 4
        }
      }
    }
  ],
  "meshes": [
    {
      "name": "defaultMaterial",
      "primitives": [
        {
          "attributes": {
            "NORMAL": 1,
            "POSITION": 0,
            "TANGENT": 2,
            "TEXCOORD_0": 3
          },
          "indices": 4,
          "material": 1,
          "mode": 4
        }
      ]
    },
    {
      "name": "defaultMaterial",
      "primitives": [
        {
          "attributes": {
            "NORMAL": 6,
            "POSITION": 5,
            "TANGENT": 7,
            "TEXCOORD_0": 8
          },
          "indices": 9,
          "material": 1,
          "mode": 4
        }
      ]
    },
    {
      "name": "defaultMaterial",
      "primitives": [
        {
          "attributes": {
            "NORMAL": 11,
            "POSITION": 10,
            "TANGENT": 12,
            "TEXCOORD_0": 13
          },
          "indices": 14,
          "material": 1,
          "mode": 4
        }
      ]
    },
    {
      "name": "defaultMaterial",
      "primitives": [
        {
          "attributes": {
            "NORMAL": 16,
            "POSITION": 15,
            "TANGENT": 17,
            "TEXCOORD_0": 18
          },
          "indices": 19,
          "material": 0,
          "mode": 4
        }
      ]
    },
    {
      "name": "defaultMaterial",
      "primitives": [
        {
          "attributes": {
            "NORMAL": 21,
            "POSITION": 20,
            "TANGENT": 22,
            "TEXCOORD_0": 23
          },
          "indices": 24,
          "material": 0,
          "mode": 4
        }
      ]
    }
  ],
  "nodes": [
    {
      "children": [
        1
      ],
      "matrix": [
        1.0,
        0.0,
        0.0,
        0.0,
        0.0,
        2.220446049250313e-16,
        -1.0,
        0.0,
        0.0,
        1.0,
        2.220446049250313e-16,
        0.0,
        0.0,
        0.0,
        0.0,
        1.0
      ],
      "name": "Sketchfab_model"
    },
    {
      "children": [
        2,
        6
      ],
      "matrix": [
        1.0,
        0.0,
        0.0,
        0.0,
        0.0,
        -4.371139006309477e-08,
        0.999999999999999,
        0.0,
        0.0,
        -0.999999999999999,
        -4.371139006309477e-08,
        0.0,
        0.0,
        0.0,
        0.0,
        1.0
      ],
      "name": "Collada visual scene group"
    },
    {
      "children": [
        3,
        4,
        5
      ],
      "matrix": [
        100.0,
        0.0,
        0.0,
        0.0,
        0.0,
        -1.6e-05,
        -100.0,
        0.0,
        0.0,
        100.0,
        -1.6e-05,
        0.0,
        0.086775,
        0.250165,
        74.742096,
        1.0
      ],
      "name": "esterilla"
    },
    {
      "mesh": 0,
      "name": "defaultMaterial"
    },
    {
      "mesh": 1,
      "name": "defaultMaterial"
    },
    {
      "mesh": 2,
      "name": "defaultMaterial"
    },
    {
      "children": [
        7,
        8
      ],
      "matrix": [
        100.0,
        0.0,
        0.0,
        0.0,
        0.0,
        -1.6e-05,
        -100.0,
        0.0,
        0.0,
        100.0,
        -1.6e-05,
        0.0,
        5.703159,
        36.259354,
        98.784348,
        1.0
      ],
      "name": "tubo"
    },
    {
      "mesh": 3,
      "name": "defaultMaterial"
    },
    {
      "mesh": 4,
      "name": "defaultMaterial"
    }
  ],
  "samplers": [
    {
      "magFilter": 9729,
      "minFilter": 9987,
      "wrapS": 10497,
      "wrapT": 10497
    }
  ],
  "scene": 0,
  "scenes": [
    {
      "name": "Sketchfab_Scene",
      "nodes": [
        0
      ]
    }
  ],
  "textures": [
    {
      "sampler": 0,
      "source": 0
    },
    {
      "sampler": 0,
      "source": 1
    },
    {
      "sampler": 0,
      "source": 2
    },
    {
      "sampler": 0,
      "source": 3
    },
    {
      "sampler": 0,
      "source": 4
    },
    {
      "sampler": 0,
      "source": 5
    }
  ]
}
