<svg width="50" height="50" viewBox="0 0 50 50" fill="none" xmlns="http://www.w3.org/2000/svg">
<path fill-rule="evenodd" clip-rule="evenodd" d="M15.7383 19.25H14C13.4477 19.25 13 18.8023 13 18.25C13 17.6977 13.4477 17.25 14 17.25H35.1075C35.6598 17.25 36.1075 17.6977 36.1075 18.25C36.1075 18.8023 35.6598 19.25 35.1075 19.25H33.7383V31.75C33.7383 32.3023 33.2906 32.75 32.7383 32.75H26.7383H22.7383H16.7383C16.186 32.75 15.7383 32.3023 15.7383 31.75V19.25ZM17.7383 19.25V30.75H21.7383V25.75C21.7383 25.1977 22.186 24.75 22.7383 24.75H26.7383C27.2906 24.75 27.7383 25.1977 27.7383 25.75V30.75H31.7383V19.25H17.7383ZM25.7383 26.75V30.75H23.7383V26.75H25.7383Z" fill="#666666"/>
</svg>
