<svg width="50" height="50" viewBox="0 0 50 50" fill="none" xmlns="http://www.w3.org/2000/svg">
<path fill-rule="evenodd" clip-rule="evenodd" d="M25.2725 24.6398V23.7408C25.2725 23.1883 25.7205 22.7408 26.2725 22.7408C26.8245 22.7408 27.2725 23.1883 27.2725 23.7408V24.6398C27.2725 25.1918 26.8245 25.6398 26.2725 25.6398C25.7205 25.6398 25.2725 25.1918 25.2725 24.6398V24.6398ZM31.2561 32.4108L30.0886 32.4008L30.1226 17.7333L31.2901 17.7428L31.2561 32.4108ZM28.086 33.4903L18.5025 32.6403L18.542 17.3103L28.1255 16.5048L28.086 33.4903ZM32.301 15.7513L30.1275 15.7333L30.128 15.4193C30.1285 15.1393 30.012 14.8713 29.8055 14.6813C29.599 14.4918 29.3245 14.3988 29.044 14.4203L17.4605 15.3943C16.944 15.4378 16.546 15.8693 16.5445 16.3883L16.5 33.5528C16.4985 34.0718 16.8945 34.5053 17.4115 34.5513L28.995 35.5788C29.025 35.5818 29.054 35.5828 29.0835 35.5828C29.332 35.5828 29.573 35.4903 29.758 35.3213C29.965 35.1323 30.083 34.8653 30.0835 34.5853L30.084 34.4013L32.245 34.4198H32.2535C32.5165 34.4198 32.7695 34.3158 32.9565 34.1303C33.146 33.9433 33.253 33.6883 33.2535 33.4218L33.2925 16.7538C33.294 16.2038 32.8505 15.7558 32.301 15.7513V15.7513Z" fill="#666666"/>
</svg>
