<?xml version="1.0" encoding="UTF-8"?>
<svg width="30px" height="30px" viewBox="0 0 30 30" version="1.1" xmlns="http://www.w3.org/2000/svg" xmlns:xlink="http://www.w3.org/1999/xlink">
    <!-- Generator: Sketch 63.1 (92452) - https://sketch.com -->
    <title>Icons/Misc/Icons-Misc-CeilingNone</title>
    <desc>Created with Sketch.</desc>
    <g id="Icons/Misc/Icons-Misc-CeilingNone" stroke="none" stroke-width="1" fill="none" fill-rule="evenodd">
        <g id="Icons//Blueprint/Icons-Blueprint-NoCeiling" fill="#666666">
            <path d="M7,25 C6.44771525,25 6,24.5522847 6,24 L6,24 L6,11 L6.00697036,10.8668252 C6.13555291,9.66825208 8,9.71264368 8,11 L8,11 L8,23 L12,23 L12,18 C12,17.4477153 12.4477153,17 13,17 L17,17 C17.5522847,17 18,17.4477153 18,18 L18,23 L22,23 L22,11 C22,10.4477153 22.4477153,10 23,10 C23.5522847,10 24,10.4477153 24,11 L24,11 L24,24 C24,24.5522847 23.5522847,25 23,25 L23,25 Z M16,19 L14,19 L14,23 L16,23 L16,19 Z" id="Combined-Shape"></path>
        </g>
    </g>
</svg>