<svg width="50" height="50" viewBox="0 0 50 50" fill="none" xmlns="http://www.w3.org/2000/svg">
<path fill-rule="evenodd" clip-rule="evenodd" d="M33.03 33.0626H16.9048V16.9374H33.03V33.0626ZM15.9524 34.9674H33.9824C34.5086 34.9674 34.9348 34.5407 34.9348 34.015V15.985C34.9348 15.4588 34.5086 15.0326 33.9824 15.0326H15.9524C15.4267 15.0326 15 15.4588 15 15.985V34.015C15 34.5407 15.4267 34.9674 15.9524 34.9674ZM29.0876 29.1202H25.9198V25.9523H29.0876L29.0876 29.1202ZM29.0876 24.0475H25.9198V20.8794V20.8793H29.0876L29.0876 24.0475ZM24.015 29.1202H20.8471L20.8471 25.9523H24.015V29.1202ZM24.015 24.0475H20.8471L20.8471 20.8793H24.015V20.8794V24.0475ZM19.8948 31.025H30.04C30.5657 31.025 30.9924 30.5988 30.9924 30.0726V19.9274C30.9924 19.4012 30.5657 18.975 30.04 18.975H19.8948C19.369 18.975 18.9424 19.4012 18.9424 19.9274V30.0726C18.9424 30.5988 19.369 31.025 19.8948 31.025Z" fill="#666666"/>
</svg>
