<svg width="90" height="48" viewBox="0 0 60 32" fill="none" xmlns="http://www.w3.org/2000/svg">
<path opacity="0.4" fill-rule="evenodd" clip-rule="evenodd" d="M59.0693 28.8441C59.0693 29.7417 46.9534 30.4689 32.0063 30.4689C17.0592 30.4689 4.94336 29.7417 4.94336 28.8441C4.94336 27.9465 17.0592 27.2192 32.0063 27.2192C46.9534 27.2192 59.0693 27.9465 59.0693 28.8441Z" fill="#5D5D5D"/>
<path fill-rule="evenodd" clip-rule="evenodd" d="M43.075 0.187008C43.075 0.997355 43.075 1.71628 43.075 2.56403C43.4394 2.56403 43.7239 2.55987 44.0084 2.56403C45.9271 2.58065 47.8423 2.6139 49.761 2.60559C50.3369 2.60559 50.7741 2.80089 51.1245 3.37437C52.8524 6.20435 54.608 9.01771 56.3289 11.856C56.4851 12.1136 56.5475 12.5084 56.5475 12.8367C56.5579 16.4729 56.5441 20.1091 56.5406 23.7452C56.5406 24.0902 56.5406 24.4351 56.5406 24.7384C55.9022 25.0252 48.5362 25.0834 47.5786 24.8299C47.5925 24.539 47.6202 24.2315 47.6237 23.9239C47.6306 22.6024 47.4849 21.3225 46.9263 20.1465C46.274 18.7668 45.306 17.8817 44.0153 17.5326C42.9883 17.2542 41.9544 17.2791 40.9169 17.4536C39.1613 17.7445 37.489 19.5107 37.194 21.8544C37.0726 22.8185 37.0344 23.7951 36.9442 24.9005C33.6585 24.9005 30.3208 24.9005 26.9067 24.9005C26.9067 24.5473 26.9067 24.1442 26.9067 23.7411C26.8997 22.4487 26.7471 21.1978 26.1884 20.0634C25.5466 18.7668 24.6202 17.9066 23.3954 17.5492C22.3476 17.2417 21.2824 17.2708 20.2207 17.4453C18.4026 17.7404 16.7164 19.6436 16.4805 21.9375C16.4076 22.6606 16.3729 23.392 16.3243 24.1193C16.307 24.3644 16.3001 24.6096 16.2862 24.9171C14.6069 24.9171 12.9692 24.9171 11.2379 24.9171C11.2379 23.2092 11.2379 21.5303 11.2379 19.7268C10.0374 19.7184 8.93061 19.7101 7.8238 19.706C6.67883 19.7018 5.53386 19.706 4.38889 19.706C3.28208 19.706 2.17181 19.706 0.929688 19.706C1.07888 19.3902 1.12745 19.2198 1.22113 19.0993C1.58197 18.6338 1.98098 18.2016 2.32447 17.7154C2.66449 17.2292 3.06697 17.0713 3.58394 17.0755C5.79408 17.0962 8.00422 17.0838 10.2178 17.0838C10.5058 17.0838 10.7903 17.0838 11.1269 17.0838C11.1269 16.5768 11.1269 16.1779 11.1269 15.6792C9.85352 15.488 8.55588 15.7332 7.14722 15.5088C7.65032 14.6777 8.05973 13.9463 8.52466 13.2731C8.64956 13.0944 8.95142 13.032 9.17695 13.0196C9.7876 12.9863 10.3983 13.0071 11.0783 13.0071C11.0783 12.3297 11.0783 11.7521 11.0783 11.0872C9.35737 11.0872 7.68848 11.0872 6.00919 11.0872C6.06817 10.3849 6.45678 9.50808 7.16458 8.42346C8.43445 8.42346 9.73208 8.42346 11.0852 8.42346C11.0852 7.3804 11.0852 6.37888 11.0852 5.29842C9.13531 5.29842 7.2305 5.29842 5.19384 5.29842C5.64489 4.38003 6.14451 3.68189 6.63025 2.99206C6.73781 2.84245 7.01538 2.82167 7.21662 2.81751C8.22974 2.80089 9.2394 2.80921 10.2525 2.80921C10.5162 2.80921 10.7799 2.80921 11.1477 2.80921C11.1477 1.85757 11.1477 0.984886 11.1477 0.0415588C11.564 0.0415588 11.8763 0.0415588 12.1886 0.0415588C15.9704 0.0706482 19.7523 0.132984 23.5342 0.120517C28.409 0.10805 33.2803 0.0166225 38.1551 0C39.7477 0.00415563 41.3437 0.120518 43.075 0.187008ZM13.2572 19.7683C13.2572 20.1506 13.2607 20.4332 13.2572 20.7158C13.2468 21.7048 13.2433 21.7007 12.4037 21.7381C12.1712 21.7505 11.8763 21.6217 11.7236 22.0123C12.31 22.2908 15.1412 22.324 15.8872 22.0747C16.7442 18.5008 18.3784 16.8053 21.1783 16.6474C22.4968 16.5726 23.7736 16.7846 24.9324 17.6614C26.3272 18.7169 27.0975 20.2421 27.3265 22.1744C30.4526 22.1744 33.5059 22.1744 36.5765 22.1744C37.2149 18.2349 39.4042 16.6765 42.5164 16.5934C42.5164 11.2825 42.5164 6.06721 42.5164 0.802033C42.3187 0.772943 42.166 0.739709 42.0133 0.735554C40.4416 0.693998 38.8699 0.615041 37.3016 0.619197C33.5475 0.631664 29.7899 0.706457 26.0358 0.714768C21.5877 0.723079 17.1397 0.681521 12.6917 0.660743C12.3794 0.660743 12.0671 0.660743 11.7236 0.660743C11.7236 1.42953 11.7236 2.07782 11.7236 2.82167C14.076 2.82167 16.3799 2.82167 18.8121 2.82167C18.5241 3.51982 18.2777 4.07667 18.0661 4.64599C17.8822 5.14466 17.6046 5.33582 17.1362 5.32336C15.5923 5.28595 14.0448 5.30673 12.5008 5.31089C12.2441 5.31089 11.9873 5.33998 11.7132 5.35661C11.7132 9.28783 11.7132 13.1318 11.7132 17.0464C13.2156 17.0921 14.6659 17.1336 16.2549 17.1835C16.0329 17.6822 15.8733 18.0354 15.7172 18.3928C15.3008 19.3361 14.7387 19.9595 13.7603 19.7184C13.6389 19.6935 13.5036 19.7434 13.2572 19.7683ZM53.3902 21.9375C53.5602 20.4872 53.2965 19.0909 53.5706 17.6614C54.4276 17.6614 55.1909 17.6614 56.0618 17.6614C56.0618 15.9451 56.0791 14.3244 56.0479 12.7037C56.041 12.417 55.871 12.1095 55.7183 11.8602C54.0668 9.159 52.3944 6.47863 50.7463 3.77331C50.4827 3.34113 50.1912 3.16659 49.7471 3.17074C47.6966 3.19152 45.646 3.17905 43.5989 3.18321C43.4463 3.18321 43.2936 3.22476 43.0542 3.25801C43.0508 7.73777 43.0299 12.1801 43.0889 16.5934C45.6668 17.1503 47.3531 18.5881 48.0609 21.9375C49.8096 21.9375 51.5582 21.9375 53.3902 21.9375ZM2.03996 19.0619C6.33186 19.0619 10.5197 19.0619 14.7214 19.0619C14.9504 18.6504 15.1655 18.264 15.4743 17.7113C15.0198 17.7113 14.7353 17.7113 14.4542 17.7113C10.995 17.7113 7.53236 17.7528 4.07663 17.6822C3.15718 17.6656 2.56387 18.0603 2.03996 19.0619ZM17.9169 3.34943C17.5283 3.34943 17.2924 3.34943 17.0564 3.34943C13.9442 3.34943 10.8285 3.34943 7.71624 3.34943C6.77598 3.34943 6.59556 3.51151 6.23125 4.7291C6.51576 4.7291 6.77251 4.7291 7.02926 4.7291C8.84039 4.7291 10.6481 4.7291 12.4592 4.7291C13.8956 4.7291 15.332 4.70832 16.7685 4.73741C17.2056 4.74572 17.4797 4.58781 17.6289 4.1016C17.6914 3.90213 17.7781 3.71097 17.9169 3.34943ZM55.9681 22.6315C53.3173 22.6315 50.7533 22.6315 48.1615 22.6315C48.1476 22.9432 48.1337 23.1926 48.1303 23.446C48.1233 23.7203 48.1303 23.9987 48.1303 24.2564C49.2163 24.4725 55.4199 24.4101 56.0271 24.1733C56.0271 23.8824 56.034 23.5666 56.0236 23.2507C56.0202 23.0637 55.9924 22.8767 55.9681 22.6315ZM36.4689 22.9349C35.3447 22.7437 28.0551 22.8019 27.4653 23.0014C27.4653 23.4502 27.4653 23.9032 27.4653 24.3021C30.4942 24.3021 33.4642 24.3021 36.4689 24.3021C36.4689 23.7951 36.4689 23.3962 36.4689 22.9349ZM15.7796 22.91C14.3918 22.91 13.1011 22.91 11.793 22.91C11.793 23.4086 11.793 23.8367 11.793 24.2481C12.7125 24.4475 15.2141 24.4102 15.7796 24.2024C15.7796 23.7951 15.7796 23.392 15.7796 22.91ZM6.7621 10.4348C8.2575 10.4348 9.64534 10.4348 11.0714 10.4348C11.0714 9.99013 11.0714 9.57456 11.0714 9.10082C9.91597 9.10082 8.82652 9.08835 7.74053 9.11328C7.58093 9.11744 7.36928 9.22965 7.27213 9.37925C7.08477 9.66599 6.95987 10.0151 6.7621 10.4348ZM55.9785 19.9512C55.3124 19.9512 54.6948 19.9512 54.0217 19.9512C54.0217 20.6285 54.0217 21.2685 54.0217 21.9126C54.7052 21.9126 55.3262 21.9126 55.9785 21.9126C55.9785 21.2353 55.9785 20.6202 55.9785 19.9512ZM8.15342 14.9187C9.23594 14.9187 10.1693 14.9187 11.0956 14.9187C11.0956 14.4408 11.0956 14.0419 11.0956 13.5723C10.4781 13.5723 9.92291 13.539 9.37124 13.5889C9.1596 13.6055 8.92714 13.7676 8.76754 13.9463C8.55589 14.1831 8.41017 14.4948 8.15342 14.9187ZM54.0078 19.2239C54.7295 19.2239 55.3505 19.2239 56.0375 19.2239C56.0028 18.8873 55.9785 18.6255 55.9542 18.3845C55.2603 18.3845 54.6392 18.3845 54.0078 18.3845C54.0078 18.7003 54.0078 18.9372 54.0078 19.2239ZM12.6847 21.069C12.6847 20.5704 12.6847 20.1756 12.6847 19.7766C12.3412 19.7766 12.0637 19.7766 11.7479 19.7766C11.7479 20.2296 11.7479 20.6285 11.7479 21.069C12.0671 21.069 12.3482 21.069 12.6847 21.069Z" fill="#202020"/>
<path fill-rule="evenodd" clip-rule="evenodd" d="M42.3808 28.8813C40.1811 28.7732 37.8564 27.1068 37.7662 23.8945C37.6795 20.915 39.8202 18.1307 42.249 18.2096C44.6187 18.2844 46.7907 20.5867 46.8046 23.2047C46.8219 26.6539 44.3134 29.035 42.3808 28.8813ZM46.0725 23.3876C45.958 20.836 44.6395 19.3358 42.3184 19.1364C40.2643 18.9618 38.422 21.2349 38.4914 23.7533C38.5608 26.3131 40.0006 27.7884 42.2767 27.9546C44.3238 28.1084 46.1002 25.7563 46.0725 23.3876Z" fill="#202020"/>
<path fill-rule="evenodd" clip-rule="evenodd" d="M21.3066 18.2344C23.6937 18.1222 25.9524 20.4369 26.0183 23.1089C26.1016 26.5623 23.6347 28.8354 21.8374 28.8894C19.3012 28.9642 17.0459 26.7285 16.9731 23.9899C16.8898 20.9646 19.034 18.1305 21.3066 18.2344ZM25.2932 23.4164C25.1856 20.8566 23.8915 19.3606 21.5599 19.1362C19.5059 18.9408 17.6566 21.1973 17.7121 23.724C17.7676 26.2714 19.1624 27.7632 21.4731 27.9544C23.5202 28.1289 25.3036 25.781 25.2932 23.4164Z" fill="#202020"/>
<path fill-rule="evenodd" clip-rule="evenodd" d="M13.2569 19.7674C13.5032 19.7425 13.6385 19.6885 13.76 19.7176C14.7384 19.9586 15.3005 19.3353 15.7168 18.3919C15.873 18.0346 16.0326 17.6813 16.2546 17.1826C14.6655 17.1328 13.2187 17.0912 11.7129 17.0455C11.7129 13.1309 11.7129 9.28281 11.7129 5.35574C11.9835 5.33912 12.2437 5.31002 12.5005 5.31002C14.0445 5.30587 15.5919 5.28509 17.1359 5.32249C17.6078 5.33495 17.8819 5.14379 18.0657 4.64512C18.2809 4.07164 18.5237 3.51895 18.8117 2.82081C16.3761 2.82081 14.0757 2.82081 11.7233 2.82081C11.7233 2.07695 11.7233 1.42867 11.7233 0.659876C12.0668 0.659876 12.3791 0.659876 12.6913 0.659876C17.1394 0.680654 21.5874 0.718057 26.0354 0.713901C29.793 0.709746 33.5471 0.630797 37.3013 0.61833C38.873 0.614175 40.4413 0.688975 42.013 0.734687C42.1657 0.738843 42.3183 0.772077 42.5161 0.801166C42.5161 6.0705 42.5161 11.2858 42.5161 16.5925C39.4004 16.6757 37.2145 18.234 36.5761 22.1736C33.502 22.1736 30.4488 22.1736 27.3261 22.1736C27.0971 20.237 26.3269 18.7161 24.9321 17.6605C23.7733 16.7837 22.4964 16.5718 21.178 16.6466C18.378 16.8045 16.7438 18.5 15.8868 22.0738C15.1443 22.3232 12.3131 22.2899 11.7233 22.0115C11.876 21.625 12.1709 21.7497 12.4034 21.7372C13.243 21.6998 13.2465 21.704 13.2569 20.7149C13.2603 20.4323 13.2569 20.1498 13.2569 19.7674Z" fill="#C8C8C8"/>
<path fill-rule="evenodd" clip-rule="evenodd" d="M53.3916 21.9373C51.5631 21.9373 49.811 21.9373 48.0658 21.9373C47.358 18.5879 45.6717 17.1542 43.0938 16.5932C43.0348 12.1799 43.0556 7.73751 43.0591 3.25775C43.2985 3.2245 43.4512 3.18295 43.6038 3.18295C45.6544 3.17879 47.7049 3.19126 49.752 3.17048C50.1961 3.16633 50.4841 3.33671 50.7512 3.77306C52.3993 6.47837 54.0682 9.15874 55.7232 11.8599C55.8759 12.1092 56.0459 12.4168 56.0528 12.7035C56.084 14.3242 56.0667 15.9449 56.0667 17.6611C55.1923 17.6611 54.4325 17.6611 53.5755 17.6611C53.2945 19.0907 53.5616 20.4911 53.3916 21.9373ZM44.0931 14.7231C45.1478 15.0971 53.8739 14.9558 54.7031 14.5777C54.6962 13.7881 54.946 12.9653 54.488 12.2048C53.1487 9.98155 51.8129 7.7583 50.491 5.52257C50.2516 5.11947 49.9845 4.92416 49.5646 4.93663C47.9964 4.97403 46.4246 4.97403 44.8564 4.99481C44.6829 4.99481 44.5094 5.06129 44.2943 5.10285C44.159 8.3567 44.1069 11.5607 44.0931 14.7231ZM44.4608 16.0114C44.4782 16.0986 44.499 16.1901 44.5164 16.2773C45.5434 16.3272 46.5738 16.3272 47.6008 16.2898C47.6737 16.2856 47.7431 16.082 47.8819 15.8659C46.7334 15.6 45.6787 15.6914 44.6274 15.7496C44.5684 15.7537 44.5164 15.9199 44.4608 16.0114Z" fill="#EBEBEB"/>
<path fill-rule="evenodd" clip-rule="evenodd" d="M2.04102 19.0611C2.56493 18.0596 3.15824 17.6607 4.07769 17.6814C7.53689 17.7479 10.9961 17.7105 14.4553 17.7105C14.7363 17.7105 15.0208 17.7105 15.4753 17.7105C15.1665 18.2632 14.9514 18.6497 14.7224 19.0611C10.5207 19.0611 6.33292 19.0611 2.04102 19.0611Z" fill="#4F4F4F"/>
<path fill-rule="evenodd" clip-rule="evenodd" d="M17.9161 3.34863C17.7773 3.71017 17.6906 3.90133 17.6281 4.10496C17.4789 4.59117 17.2048 4.75324 16.7677 4.74077C15.3313 4.71168 13.8948 4.73246 12.4584 4.73246C10.6473 4.73246 8.83961 4.73246 7.02847 4.73246C6.77172 4.73246 6.51151 4.73246 6.23047 4.73246C6.59478 3.51486 6.77173 3.35279 7.71546 3.35279C10.8277 3.35279 13.9434 3.35279 17.0556 3.35279C17.2916 3.34864 17.5275 3.34863 17.9161 3.34863Z" fill="#4F4F4F"/>
<path fill-rule="evenodd" clip-rule="evenodd" d="M55.9683 22.6313C55.9926 22.8765 56.0203 23.0635 56.0238 23.2505C56.0307 23.5664 56.0273 23.8822 56.0273 24.1731C55.4201 24.41 49.2164 24.4681 48.1304 24.2562C48.1304 23.9985 48.127 23.7243 48.1304 23.4458C48.1339 23.1965 48.1478 22.943 48.1617 22.6313C50.7535 22.6313 53.321 22.6313 55.9683 22.6313Z" fill="#EBEBEB"/>
<path fill-rule="evenodd" clip-rule="evenodd" d="M36.4685 22.9348C36.4685 23.3919 36.4685 23.7909 36.4685 24.302C33.4638 24.302 30.4973 24.302 27.4648 24.302C27.4648 23.9031 27.4648 23.4459 27.4648 23.0013C28.0547 22.8018 35.3409 22.7436 36.4685 22.9348Z" fill="#EBEBEB"/>
<path fill-rule="evenodd" clip-rule="evenodd" d="M15.7795 22.9092C15.7795 23.3912 15.7795 23.7943 15.7795 24.2016C15.214 24.4094 12.7124 24.4468 11.793 24.2473C11.793 23.8359 11.793 23.4079 11.793 22.9092C13.101 22.9092 14.3882 22.9092 15.7795 22.9092Z" fill="#EBEBEB"/>
<path fill-rule="evenodd" clip-rule="evenodd" d="M6.76172 10.435C6.95949 10.0153 7.08439 9.66617 7.27175 9.37528C7.3689 9.22567 7.57708 9.11348 7.74015 9.10932C8.82614 9.08855 9.91559 9.09686 11.071 9.09686C11.071 9.57475 11.071 9.99031 11.071 10.4308C9.64496 10.435 8.25712 10.435 6.76172 10.435Z" fill="#4F4F4F"/>
<path fill-rule="evenodd" clip-rule="evenodd" d="M55.9783 19.9512C55.9783 20.6202 55.9783 21.2353 55.9783 21.9126C55.3261 21.9126 54.705 21.9126 54.0215 21.9126C54.0215 21.2727 54.0215 20.6327 54.0215 19.9512C54.6946 19.9512 55.3122 19.9512 55.9783 19.9512Z" fill="#F8FFD1"/>
<path fill-rule="evenodd" clip-rule="evenodd" d="M8.1543 14.9188C8.41452 14.4949 8.55676 14.1791 8.76494 13.9464C8.92454 13.7677 9.15701 13.6098 9.36866 13.589C9.92033 13.5391 10.4789 13.5724 11.0931 13.5724C11.0931 14.042 11.0931 14.4367 11.0931 14.9188C10.1667 14.9188 9.23335 14.9188 8.1543 14.9188Z" fill="#4F4F4F"/>
<path fill-rule="evenodd" clip-rule="evenodd" d="M54.0078 19.2242C54.0078 18.9375 54.0078 18.6964 54.0078 18.3848C54.6428 18.3848 55.2603 18.3848 55.9543 18.3848C55.9786 18.6258 56.0028 18.8834 56.0375 19.2242C55.3506 19.2242 54.7295 19.2242 54.0078 19.2242Z" fill="#C8C8C8"/>
<path fill-rule="evenodd" clip-rule="evenodd" d="M12.6848 21.0688C12.3518 21.0688 12.0707 21.0688 11.748 21.0688C11.748 20.6241 11.748 20.2293 11.748 19.7764C12.0638 19.7764 12.3414 19.7764 12.6848 19.7764C12.6848 20.1753 12.6848 20.5701 12.6848 21.0688Z" fill="#C8C8C8"/>
<path fill-rule="evenodd" clip-rule="evenodd" d="M46.0728 23.3878C46.0971 25.7565 44.3206 28.1086 42.2736 27.959C40.001 27.7886 38.5576 26.3175 38.4882 23.7576C38.4188 21.2393 40.2612 18.962 42.3152 19.1407C44.6398 19.3402 45.9583 20.8404 46.0728 23.3878ZM45.0319 23.4958C45.018 21.8793 43.7273 20.4705 42.2562 20.4622C40.8233 20.4539 39.5916 22.0039 39.5707 23.8324C39.5534 25.4531 40.9135 26.945 42.3915 26.9284C43.8037 26.9117 45.0493 25.2952 45.0319 23.4958Z" fill="#3A3A3A"/>
<path fill-rule="evenodd" clip-rule="evenodd" d="M25.2933 23.4171C25.3037 25.7817 23.5203 28.1296 21.4732 27.955C19.1659 27.7639 17.7677 26.272 17.7122 23.7246C17.6566 21.198 19.5059 18.9415 21.56 19.1368C23.8915 19.3612 25.1857 20.8614 25.2933 23.4171ZM24.2524 23.5584C24.2732 21.946 23.0068 20.504 21.5287 20.4583C20.068 20.4126 18.7877 22.0083 18.7947 23.8618C18.7981 25.4575 20.0993 26.8995 21.5634 26.9244C22.9617 26.9535 24.2281 25.3744 24.2524 23.5584Z" fill="#3A3A3A"/>
<path fill-rule="evenodd" clip-rule="evenodd" d="M44.0918 14.7223C44.1057 11.5599 44.1577 8.35588 44.293 5.10202C44.5081 5.05631 44.6816 4.99399 44.8551 4.99399C46.4268 4.96905 47.9951 4.96905 49.5634 4.9358C49.9832 4.92749 50.2538 5.12281 50.4898 5.52175C51.8117 7.75747 53.1509 9.98073 54.4867 12.204C54.9447 12.9645 54.6984 13.7873 54.7019 14.5769C53.8726 14.955 45.1466 15.0963 44.0918 14.7223ZM50.344 6.41104C49.7577 5.34305 49.2685 5.23085 48.5676 6.01211C47.3602 7.35853 46.1805 8.7382 45.0008 10.1179C44.8551 10.2882 44.6712 10.521 44.6608 10.7329C44.6157 11.697 44.5949 12.6694 44.7025 13.8122C46.7946 11.4352 48.4704 8.84208 50.344 6.41104ZM54.2335 14.1862C54.1918 13.6003 54.2751 13.0601 54.1051 12.6944C53.661 11.7386 53.1058 10.8576 52.5507 9.86853C51.4612 11.3604 50.4481 12.7525 49.4315 14.1405C49.4558 14.207 49.4836 14.2735 49.5079 14.34C51.0484 14.286 52.5923 14.2403 54.2335 14.1862ZM45.1778 14.261C45.9029 14.448 46.4442 14.3524 46.9334 13.6751C48.3074 11.7676 49.7264 9.91425 51.1247 8.03175C51.1733 7.96526 51.1871 7.86552 51.2427 7.71592C51.0761 7.47073 50.8992 7.21724 50.6841 6.90142C48.8243 9.38648 47.0236 11.7884 45.1778 14.261ZM52.2454 9.37817C52.0129 8.99585 51.829 8.69664 51.6104 8.3351C50.1359 10.3298 48.7064 12.2622 47.2075 14.2901C47.8841 14.3234 48.4392 14.5228 48.9076 13.8746C49.9832 12.391 51.0865 10.9324 52.2454 9.37817ZM44.7476 9.41557C45.8474 8.38913 47.7626 6.08276 47.9604 5.53837C46.8987 5.56746 45.8544 5.4885 44.7476 5.64226C44.7476 6.94713 44.7476 8.13563 44.7476 9.41557Z" fill="#202020"/>
<path fill-rule="evenodd" clip-rule="evenodd" d="M44.459 16.0119C44.5145 15.9204 44.5665 15.7542 44.6255 15.7501C45.6768 15.6919 46.7351 15.6046 47.88 15.8664C47.7412 16.0825 47.6753 16.2903 47.599 16.2903C46.572 16.3277 45.5415 16.3277 44.5145 16.2778C44.4972 16.1906 44.4763 16.1033 44.459 16.0119Z" fill="#202020"/>
<path fill-rule="evenodd" clip-rule="evenodd" d="M45.0316 23.4955C45.049 25.2908 43.7999 26.9115 42.3913 26.9281C40.9132 26.9447 39.5531 25.4528 39.5705 23.8322C39.5878 22.0037 40.823 20.4536 42.256 20.4619C43.7271 20.4703 45.0178 21.879 45.0316 23.4955ZM42.3115 21.0105C41.0936 20.998 39.9903 22.2821 40.0181 23.7532C40.0458 25.378 40.9826 26.2632 42.3011 26.3588C43.505 26.4419 44.5945 25.0913 44.6083 23.6285C44.6188 22.2281 43.5605 21.0229 42.3115 21.0105Z" fill="#202020"/>
<path fill-rule="evenodd" clip-rule="evenodd" d="M24.2522 23.5588C24.2279 25.3707 22.965 26.954 21.5598 26.929C20.0956 26.9041 18.7945 25.4621 18.791 23.8663C18.7841 22.0129 20.0644 20.4172 21.5251 20.4629C23.0032 20.5044 24.273 21.9464 24.2522 23.5588ZM21.5286 26.3722C22.7325 26.3763 23.822 25.0673 23.822 23.6128C23.8254 22.2124 22.7637 21.0156 21.5147 21.0114C20.2934 21.0072 19.197 22.2955 19.2317 23.7666C19.2733 25.3997 20.2275 26.2226 21.5286 26.3722Z" fill="#202020"/>
<path fill-rule="evenodd" clip-rule="evenodd" d="M50.343 6.4113C48.4694 8.84234 46.7936 11.4354 44.7014 13.8166C44.5938 12.6738 44.6146 11.7014 44.6597 10.7373C44.6702 10.5254 44.8506 10.2927 44.9998 10.1223C46.1829 8.74261 47.3626 7.36294 48.5665 6.01652C49.2674 5.23111 49.7566 5.3433 50.343 6.4113Z" fill="#7A7A7A"/>
<path fill-rule="evenodd" clip-rule="evenodd" d="M54.2336 14.1871C52.5925 14.2411 51.0485 14.2868 49.508 14.3367C49.4837 14.2702 49.4559 14.2037 49.4316 14.1372C50.4482 12.7451 51.4614 11.3571 52.5508 9.86523C53.106 10.8543 53.6611 11.7353 54.1052 12.6911C54.2752 13.0609 54.1919 13.6011 54.2336 14.1871Z" fill="#3A3A3A"/>
<path fill-rule="evenodd" clip-rule="evenodd" d="M45.1777 14.2615C47.0236 11.793 48.8208 9.38692 50.6805 6.90186C50.8956 7.21768 51.0726 7.47533 51.2391 7.71635C51.1871 7.86596 51.1732 7.96985 51.1212 8.03219C49.7229 9.91053 48.3004 11.7681 46.9299 13.6755C46.4441 14.3487 45.9064 14.4443 45.1777 14.2615Z" fill="#3A3A3A"/>
<path fill-rule="evenodd" clip-rule="evenodd" d="M52.2445 9.37949C51.0856 10.9337 49.9823 12.3923 48.9032 13.8759C48.4348 14.5242 47.8762 14.3247 47.2031 14.2914C48.702 12.2635 50.1315 10.3311 51.6061 8.33643C51.8281 8.69797 52.012 8.99717 52.2445 9.37949Z" fill="#7A7A7A"/>
<path fill-rule="evenodd" clip-rule="evenodd" d="M44.748 9.41626C44.748 8.13632 44.748 6.94782 44.748 5.64295C45.8549 5.48919 46.8992 5.56815 47.9609 5.53906C47.7631 6.08345 45.8479 8.38982 44.748 9.41626Z" fill="#3A3A3A"/>
<path fill-rule="evenodd" clip-rule="evenodd" d="M42.3129 21.0099C43.562 21.0223 44.6202 22.2233 44.6063 23.6237C44.5924 25.0865 43.503 26.4413 42.299 26.354C40.9806 26.2626 40.0472 25.3733 40.016 23.7484C39.9917 22.2815 41.0951 20.9974 42.3129 21.0099Z" fill="#B2B4BA"/>
<path fill-rule="evenodd" clip-rule="evenodd" d="M21.5286 26.3705C20.2275 26.2209 19.2733 25.3981 19.2352 23.765C19.2005 22.2939 20.2969 21.0056 21.5182 21.0098C22.7638 21.0139 23.8255 22.2108 23.8255 23.6112C23.822 25.0657 22.7325 26.3747 21.5286 26.3705Z" fill="#B2B4BA"/>
<path d="M18.3236 12.6541C18.5655 12.6541 18.7806 12.6995 18.9687 12.7902C19.1569 12.8809 19.3148 13.0086 19.4425 13.1732C19.5735 13.3345 19.671 13.5227 19.7348 13.7377C19.802 13.9494 19.8356 14.1762 19.8356 14.4181C19.8356 14.744 19.7768 15.0414 19.6592 15.3102C19.5416 15.5756 19.3702 15.7873 19.1451 15.9452C18.9234 16.1032 18.6495 16.1821 18.3236 16.1821H17.119C17.0317 16.1821 16.9578 16.1536 16.8973 16.0964C16.8402 16.036 16.8116 15.962 16.8116 15.8747V12.9616C16.8116 12.8742 16.8402 12.802 16.8973 12.7448C16.9578 12.6844 17.0317 12.6541 17.119 12.6541H18.3236ZM18.2732 15.6025C18.4849 15.6025 18.6579 15.5488 18.7923 15.4412C18.9267 15.3304 19.0242 15.1859 19.0846 15.0078C19.1485 14.8264 19.1804 14.6298 19.1804 14.4181C19.1804 14.2602 19.1619 14.1107 19.125 13.9696C19.0914 13.8251 19.0376 13.6991 18.9637 13.5916C18.8898 13.4807 18.7957 13.3933 18.6814 13.3295C18.5672 13.2656 18.4311 13.2337 18.2732 13.2337H17.3912L17.4416 13.1884V15.658L17.4114 15.6025H18.2732ZM20.7219 12.6541H22.4103C22.4976 12.6541 22.5699 12.6827 22.627 12.7398C22.6875 12.7936 22.7177 12.8641 22.7177 12.9515C22.7177 13.0355 22.6875 13.1044 22.627 13.1581C22.5699 13.2085 22.4976 13.2337 22.4103 13.2337H20.9991L21.0444 13.148V14.1308L21.0041 14.0905H22.1835C22.2708 14.0905 22.3431 14.1191 22.4002 14.1762C22.4607 14.23 22.4909 14.3005 22.4909 14.3879C22.4909 14.4719 22.4607 14.5408 22.4002 14.5945C22.3431 14.6449 22.2708 14.6701 22.1835 14.6701H21.0192L21.0444 14.6298V15.6479L21.0041 15.6025H22.4103C22.4976 15.6025 22.5699 15.6328 22.627 15.6932C22.6875 15.7504 22.7177 15.8176 22.7177 15.8948C22.7177 15.9788 22.6875 16.0477 22.627 16.1015C22.5699 16.1552 22.4976 16.1821 22.4103 16.1821H20.7219C20.6345 16.1821 20.5606 16.1536 20.5001 16.0964C20.443 16.036 20.4144 15.962 20.4144 15.8747V12.9616C20.4144 12.8742 20.443 12.802 20.5001 12.7448C20.5606 12.6844 20.6345 12.6541 20.7219 12.6541ZM25.2441 15.5924C25.3315 15.5924 25.4037 15.621 25.4608 15.6781C25.5213 15.7319 25.5515 15.8024 25.5515 15.8898C25.5515 15.9738 25.5213 16.0444 25.4608 16.1015C25.4037 16.1552 25.3315 16.1821 25.2441 16.1821H23.6061C23.5187 16.1821 23.4448 16.1536 23.3843 16.0964C23.3272 16.036 23.2987 15.962 23.2987 15.8747V12.9616C23.2987 12.8742 23.3289 12.802 23.3894 12.7448C23.4499 12.6844 23.5271 12.6541 23.6212 12.6541C23.7019 12.6541 23.7724 12.6844 23.8329 12.7448C23.8967 12.802 23.9287 12.8742 23.9287 12.9616V15.6781L23.8178 15.5924H25.2441ZM26.7588 15.8747C26.7588 15.962 26.7268 16.036 26.663 16.0964C26.5992 16.1536 26.5252 16.1821 26.4412 16.1821C26.3471 16.1821 26.2715 16.1536 26.2144 16.0964C26.1573 16.036 26.1287 15.962 26.1287 15.8747V12.9616C26.1287 12.8742 26.159 12.802 26.2195 12.7448C26.2799 12.6844 26.3572 12.6541 26.4513 12.6541C26.532 12.6541 26.6025 12.6844 26.663 12.7448C26.7268 12.802 26.7588 12.8742 26.7588 12.9616V15.8747ZM30.0922 12.644C30.1762 12.644 30.2484 12.6726 30.3089 12.7297C30.3727 12.7835 30.4047 12.8524 30.4047 12.9364C30.4047 12.98 30.3946 13.0254 30.3744 13.0724L29.1295 15.9856C29.0993 16.0528 29.0556 16.1032 28.9985 16.1368C28.9447 16.167 28.8893 16.1821 28.8322 16.1821C28.7784 16.1788 28.7263 16.162 28.6759 16.1317C28.6255 16.0981 28.5869 16.0511 28.56 15.9906L27.3151 13.0674C27.305 13.0472 27.2983 13.0271 27.295 13.0069C27.2916 12.9834 27.2899 12.9616 27.2899 12.9414C27.2899 12.844 27.3252 12.77 27.3958 12.7196C27.4663 12.6659 27.5335 12.639 27.5974 12.639C27.725 12.639 27.8174 12.7045 27.8746 12.8356L28.9783 15.4312L28.8019 15.4362L29.815 12.8356C29.8721 12.7079 29.9645 12.644 30.0922 12.644ZM31.24 12.6541H32.9284C33.0157 12.6541 33.088 12.6827 33.1451 12.7398C33.2056 12.7936 33.2358 12.8641 33.2358 12.9515C33.2358 13.0355 33.2056 13.1044 33.1451 13.1581C33.088 13.2085 33.0157 13.2337 32.9284 13.2337H31.5172L31.5625 13.148V14.1308L31.5222 14.0905H32.7016C32.7889 14.0905 32.8612 14.1191 32.9183 14.1762C32.9788 14.23 33.009 14.3005 33.009 14.3879C33.009 14.4719 32.9788 14.5408 32.9183 14.5945C32.8612 14.6449 32.7889 14.6701 32.7016 14.6701H31.5373L31.5625 14.6298V15.6479L31.5222 15.6025H32.9284C33.0157 15.6025 33.088 15.6328 33.1451 15.6932C33.2056 15.7504 33.2358 15.8176 33.2358 15.8948C33.2358 15.9788 33.2056 16.0477 33.1451 16.1015C33.088 16.1552 33.0157 16.1821 32.9284 16.1821H31.24C31.1526 16.1821 31.0787 16.1536 31.0182 16.0964C30.9611 16.036 30.9325 15.962 30.9325 15.8747V12.9616C30.9325 12.8742 30.9611 12.802 31.0182 12.7448C31.0787 12.6844 31.1526 12.6541 31.24 12.6541ZM34.1796 16.1821C34.0856 16.1821 34.0016 16.1536 33.9276 16.0964C33.8537 16.036 33.8168 15.962 33.8168 15.8747V12.9616C33.8168 12.8742 33.8453 12.802 33.9024 12.7448C33.9629 12.6844 34.0368 12.6541 34.1242 12.6541H35.5757C35.7504 12.6541 35.9134 12.7012 36.0646 12.7952C36.2192 12.886 36.3435 13.0136 36.4376 13.1783C36.5316 13.3396 36.5787 13.526 36.5787 13.7377C36.5787 13.8654 36.5518 13.9897 36.498 14.1107C36.4476 14.2316 36.3771 14.3408 36.2864 14.4383C36.199 14.5357 36.0999 14.6113 35.989 14.6651L35.994 14.5492C36.0881 14.5996 36.1654 14.66 36.2259 14.7306C36.2897 14.7978 36.3384 14.8717 36.372 14.9524C36.409 15.0296 36.4308 15.1136 36.4376 15.2044C36.451 15.2884 36.4594 15.3623 36.4628 15.4261C36.4695 15.49 36.4796 15.5437 36.493 15.5874C36.5098 15.6311 36.54 15.6647 36.5837 15.6882C36.6576 15.7319 36.703 15.7957 36.7198 15.8797C36.74 15.9604 36.7215 16.0326 36.6644 16.0964C36.6274 16.1401 36.5804 16.1687 36.5232 16.1821C36.4661 16.1922 36.409 16.1922 36.3519 16.1821C36.2948 16.1687 36.2477 16.1519 36.2108 16.1317C36.1536 16.0981 36.0965 16.0494 36.0394 15.9856C35.9823 15.9184 35.9352 15.8293 35.8983 15.7184C35.8647 15.6076 35.8479 15.4648 35.8479 15.29C35.8479 15.2329 35.8378 15.1808 35.8176 15.1338C35.7975 15.0834 35.7689 15.0414 35.732 15.0078C35.695 14.9708 35.648 14.944 35.5908 14.9272C35.5337 14.907 35.4665 14.8969 35.3892 14.8969H34.3712L34.4468 14.781V15.8747C34.4468 15.962 34.4232 16.036 34.3762 16.0964C34.3292 16.1536 34.2636 16.1821 34.1796 16.1821ZM34.3762 14.3778H35.5505C35.611 14.3778 35.6698 14.3509 35.7269 14.2972C35.784 14.24 35.8311 14.1644 35.868 14.0704C35.905 13.9729 35.9235 13.8671 35.9235 13.7528C35.9235 13.605 35.8832 13.4824 35.8025 13.3849C35.7252 13.2841 35.6412 13.2337 35.5505 13.2337H34.3863L34.4468 13.0724V14.4988L34.3762 14.3778ZM39.4263 12.639C39.5035 12.639 39.5724 12.6692 39.6329 12.7297C39.6967 12.7868 39.7287 12.8608 39.7287 12.9515C39.7287 12.9817 39.7236 13.0136 39.7135 13.0472C39.7068 13.0775 39.6934 13.1077 39.6732 13.138L38.5291 14.776L38.6199 14.4282V15.8747C38.6199 15.962 38.5896 16.036 38.5291 16.0964C38.472 16.1536 38.4048 16.1821 38.3275 16.1821C38.2435 16.1821 38.1713 16.1536 38.1108 16.0964C38.0537 16.036 38.0251 15.962 38.0251 15.8747V14.4685L38.0655 14.6298L36.9768 13.1833C36.9432 13.1396 36.9197 13.0976 36.9062 13.0573C36.8928 13.017 36.8861 12.98 36.8861 12.9464C36.8861 12.8557 36.9214 12.7818 36.9919 12.7247C37.0625 12.6676 37.1347 12.639 37.2087 12.639C37.3027 12.639 37.3851 12.686 37.4556 12.7801L38.4233 14.1157L38.2822 14.0956L39.1743 12.7902C39.2448 12.6894 39.3288 12.639 39.4263 12.639Z" fill="#4F4F4F"/>
<path d="M18.7419 9.41532C18.8226 9.41532 18.8898 9.4422 18.9435 9.49596C18.9973 9.54972 19.0242 9.61692 19.0242 9.69757C19.0242 9.77485 18.9973 9.84037 18.9435 9.89413C18.8898 9.94453 18.8226 9.96973 18.7419 9.96973H17.0283C16.941 9.96973 16.8721 9.94285 16.8217 9.88909C16.7713 9.83533 16.7461 9.76645 16.7461 9.68245C16.7461 9.59844 16.7763 9.52452 16.8368 9.46068L17.9355 8.28636C18.0598 8.15196 18.1573 8.0142 18.2278 7.87308C18.3018 7.73196 18.3387 7.60932 18.3387 7.50515C18.3387 7.33715 18.29 7.20275 18.1926 7.10195C18.0951 6.99779 17.9658 6.94571 17.8045 6.94571C17.7406 6.94571 17.6751 6.96083 17.6079 6.99107C17.5407 7.02131 17.4752 7.06331 17.4114 7.11707C17.3509 7.17083 17.2938 7.23299 17.24 7.30355C17.1997 7.35731 17.1594 7.39091 17.119 7.40435C17.0787 7.41779 17.0418 7.42451 17.0082 7.42451C16.9342 7.42451 16.8654 7.39763 16.8015 7.34387C16.741 7.28675 16.7108 7.22123 16.7108 7.14731C16.7108 7.09019 16.7293 7.03475 16.7662 6.98099C16.8066 6.92723 16.8553 6.87179 16.9124 6.81467C16.9964 6.73067 17.0905 6.65675 17.1946 6.59291C17.2988 6.52907 17.4063 6.48035 17.5172 6.44675C17.6281 6.40979 17.7356 6.39131 17.8398 6.39131C18.0649 6.39131 18.2598 6.43667 18.4244 6.52739C18.5924 6.61475 18.7218 6.74075 18.8125 6.90539C18.9032 7.06667 18.9486 7.25819 18.9486 7.47995C18.9486 7.66476 18.8931 7.8714 18.7822 8.09988C18.6747 8.325 18.5286 8.53668 18.3438 8.73492L17.6634 9.46068L17.6079 9.41532H18.7419ZM21.2636 9.96973C21.1796 9.96973 21.1091 9.94117 21.0519 9.88405C20.9948 9.82357 20.9663 9.74965 20.9663 9.66229V7.29347L21.0721 7.31867L20.0994 8.52324L20.0742 8.45772H21.8584C21.939 8.45772 22.0062 8.4846 22.06 8.53836C22.1137 8.59212 22.1406 8.65932 22.1406 8.73996C22.1406 8.81724 22.1137 8.88276 22.06 8.93652C22.0062 8.98692 21.939 9.01212 21.8584 9.01212H19.6559C19.5853 9.01212 19.5164 8.98356 19.4492 8.92644C19.3854 8.86932 19.3535 8.79876 19.3535 8.71476C19.3535 8.64084 19.3787 8.57364 19.4291 8.51316L21.0217 6.56267C21.0486 6.52571 21.0839 6.49715 21.1275 6.47699C21.1712 6.45347 21.2199 6.44171 21.2737 6.44171C21.3611 6.44171 21.4316 6.47195 21.4854 6.53243C21.5425 6.58955 21.5711 6.66179 21.5711 6.74915V9.66229C21.5711 9.74965 21.5408 9.82357 21.4804 9.88405C21.4232 9.94117 21.351 9.96973 21.2636 9.96973ZM22.9666 6.44171C23.0472 6.44171 23.1178 6.47195 23.1783 6.53243C23.2421 6.58955 23.274 6.66179 23.274 6.74915V9.66229C23.274 9.74965 23.2421 9.82357 23.1783 9.88405C23.1144 9.94117 23.0405 9.96973 22.9565 9.96973C22.8624 9.96973 22.7868 9.94117 22.7297 9.88405C22.6726 9.82357 22.644 9.74965 22.644 9.66229V6.74915C22.644 6.66179 22.6743 6.58955 22.7348 6.53243C22.7952 6.47195 22.8725 6.44171 22.9666 6.44171ZM25.1993 6.44171C25.2934 6.44171 25.369 6.47195 25.4261 6.53243C25.4833 6.58955 25.5118 6.66179 25.5118 6.74915V9.66229C25.5118 9.74965 25.4816 9.82357 25.4211 9.88405C25.364 9.94117 25.2867 9.96973 25.1893 9.96973C25.1086 9.96973 25.0364 9.94117 24.9725 9.88405C24.9121 9.82357 24.8818 9.74965 24.8818 9.66229V6.74915C24.8818 6.66179 24.9137 6.58955 24.9776 6.53243C25.0414 6.47195 25.1153 6.44171 25.1993 6.44171ZM22.9515 7.90836H25.1993V8.48796H22.9515V7.90836Z" fill="#4F4F4F"/>
</svg>
